<svg id="Capa_1" enable-background="new 0 0 497 497" height="512" viewBox="0 0 497 497" width="512" xmlns="http://www.w3.org/2000/svg"><g><path d="m439.8 105.4h-22.5l-60 37.7 60 37.7h22.5c4.142 0 7.5-3.358 7.5-7.5v-60.4c0-4.142-3.358-7.5-7.5-7.5z" fill="#ff8b47"/><path d="m417.3 105.4h-360.1c-4.142 0-7.5 3.358-7.5 7.5v60.4c0 4.142 3.358 7.5 7.5 7.5h360.1z" fill="#f9b348"/><path d="m390.1 210.8h-22.5l-60 37.7 60 37.7h22.5c4.142 0 7.5-3.358 7.5-7.5v-60.4c0-4.142-3.358-7.5-7.5-7.5z" fill="#61ce5b"/><path d="m367.6 210.8h-260.7c-4.142 0-7.5 3.358-7.5 7.5v60.4c0 4.142 3.358 7.5 7.5 7.5h260.7z" fill="#94e368"/><path d="m340.4 316.2h-22.5l-60 37.7 60 37.7h22.5c4.142 0 7.5-3.358 7.5-7.5v-60.4c0-4.142-3.358-7.5-7.5-7.5z" fill="#28abfa"/><path d="m317.9 316.2h-161.3c-4.142 0-7.5 3.358-7.5 7.5v60.4c0 4.142 3.358 7.5 7.5 7.5h161.3z" fill="#14cfff"/><path d="m290.7 421.6h-22.5l-60 37.7 60 37.7h22.5c4.142 0 7.5-3.358 7.5-7.5v-60.4c0-4.142-3.358-7.5-7.5-7.5z" fill="#9255e3"/><path d="m268.2 421.6h-61.9c-4.142 0-7.5 3.358-7.5 7.5v60.4c0 4.142 3.358 7.5 7.5 7.5h61.9z" fill="#ae7df0"/><path d="m489.5 0h-22.5l-60 37.7 60 37.7h22.5c4.142 0 7.5-3.358 7.5-7.5v-60.4c0-4.142-3.358-7.5-7.5-7.5z" fill="#f9b348"/><path d="m467 0h-459.5c-4.142 0-7.5 3.358-7.5 7.5v60.4c0 4.142 3.358 7.5 7.5 7.5h459.5z" fill="#f3da49"/></g></svg>